<?xml version="1.0" encoding="UTF-8"?><svg id="Layer_1" xmlns="http://www.w3.org/2000/svg" xmlns:xlink="http://www.w3.org/1999/xlink" viewBox="0 0 65 65"><defs><style>.cls-1{fill:url(#linear-gradient);opacity:.5;}.cls-1,.cls-2,.cls-3{stroke-width:0px;}.cls-2{fill:#38706f;}.cls-3{fill:#fff;}</style><linearGradient id="linear-gradient" x1="0" y1="32.5" x2="65" y2="32.5" gradientTransform="translate(32.5 -13.46) rotate(45)" gradientUnits="userSpaceOnUse"><stop offset="0" stop-color="#eee5dc"/><stop offset="1" stop-color="#4ead4f"/></linearGradient></defs><circle class="cls-3" cx="32.5" cy="32.5" r="32.5" transform="translate(-13.46 32.5) rotate(-45)"/><circle class="cls-1" cx="32.5" cy="32.5" r="32.5" transform="translate(-13.46 32.5) rotate(-45)"/><path class="cls-2" d="m35.13,25.1c1.04-.92,1.62-2.35,1.3-3.9-.31-1.55-1.56-2.81-3.11-3.13-2.63-.55-4.94,1.45-4.94,3.98,0,1.22.54,2.31,1.39,3.06-2.15.84-3.8,2.66-4.41,4.91-.27.97.47,1.94,1.48,1.94h11.24c1.01,0,1.74-.96,1.48-1.94-.61-2.25-2.27-4.07-4.41-4.91Z"/><path class="cls-2" d="m27.28,40.18c1.04-.92,1.62-2.35,1.3-3.9-.31-1.55-1.56-2.81-3.11-3.13-2.63-.55-4.94,1.45-4.94,3.98,0,1.22.54,2.31,1.39,3.06-2.15.84-3.8,2.66-4.41,4.91-.27.97.47,1.94,1.48,1.94h11.24c1.01,0,1.74-.96,1.48-1.94-.61-2.25-2.27-4.07-4.41-4.91Z"/><path class="cls-2" d="m43.08,40.18c1.04-.92,1.62-2.35,1.3-3.9s-1.56-2.81-3.11-3.13c-2.63-.55-4.94,1.45-4.94,3.98,0,1.22.54,2.31,1.39,3.06-2.15.84-3.8,2.66-4.41,4.91-.27.97.47,1.94,1.48,1.94h11.24c1.01,0,1.74-.96,1.48-1.94-.61-2.25-2.27-4.07-4.41-4.91Z"/></svg>