<?xml version="1.0" encoding="UTF-8"?><svg id="Layer_1" xmlns="http://www.w3.org/2000/svg" xmlns:xlink="http://www.w3.org/1999/xlink" viewBox="0 0 65 65"><defs><style>.cls-1{fill:url(#linear-gradient);opacity:.5;}.cls-1,.cls-2,.cls-3{stroke-width:0px;}.cls-2{fill:#38706f;}.cls-3{fill:#fff;}</style><linearGradient id="linear-gradient" x1="61.15" y1="-7.83" x2="-2.58" y2="81.87" gradientTransform="translate(32.5 -13.46) rotate(45)" gradientUnits="userSpaceOnUse"><stop offset="0" stop-color="#eee5dc"/><stop offset="1" stop-color="#4ead4f"/></linearGradient></defs><circle class="cls-3" cx="32.5" cy="32.5" r="32.5" transform="translate(-13.46 32.5) rotate(-45)"/><circle class="cls-1" cx="32.5" cy="32.5" r="32.5" transform="translate(-13.46 32.5) rotate(-45)"/><path class="cls-2" d="m15.15,26.91c.21-.49.58-.6,1.09-.55,1.91.2,3.82.32,5.69.82.51.14,1,.32,1.46.62.39.25.48.58.42,1.01-.16,1.23-.4,2.45-.69,3.65-.58,2.46-1.33,4.87-2.03,7.3-.3,1.04-.31,1.05-1.39,1.05-1.21,0-2.42-.01-3.62,0-.41,0-.72-.11-.92-.48v-13.42Z"/><path class="cls-2" d="m32.85,46.58c-.8.05-1.52-.17-2.13-.62-2.28-1.65-4.5-3.37-6.66-5.18-.46-.39-.85-.87-1.28-1.31-.1-.1-.09-.18-.05-.3.9-2.7,1.61-5.45,2.19-8.23.03-.13.04-.26.24-.26.87,0,1.74,0,2.61,0,.03.15-.09.19-.15.26-.68.78-1.24,1.64-1.59,2.62-.11.32-.18.65-.22.99-.08.89.45,1.63,1.29,1.91,1.64.54,2.94.03,4.03-1.21.14-.15.27-.24.48-.26.35-.04.68-.14.97-.36.2-.15.38-.19.62,0,2.19,1.83,4.47,3.56,6.6,5.47.43.38.83.8,1.17,1.27.19.25.36.52.44.83.14.54-.16,1-.71,1.1-.24.04-.4-.05-.57-.22-1.3-1.31-2.6-2.61-3.9-3.91-.21-.21-.43-.38-.74-.31-.27.06-.46.22-.56.49-.1.29,0,.53.2.74.7.71,1.4,1.41,2.11,2.11.58.58,1.14,1.16,1.73,1.72.2.19.15.29,0,.46-.36.39-.81.46-1.3.41-.18-.02-.3-.15-.42-.27-1.11-1.11-2.22-2.22-3.33-3.33-.22-.22-.45-.39-.78-.3-.58.15-.73.8-.29,1.25.71.72,1.44,1.44,2.15,2.16.32.32.63.64.96.96.12.12.14.22.08.38-.3.75-1.09.93-1.66.36-.9-.9-1.8-1.81-2.71-2.7-.44-.43-1.07-.28-1.24.28-.09.31.04.55.26.76.65.65,1.29,1.29,1.94,1.94.08.08.18.13.22.29Z"/><path class="cls-2" d="m49.85,35.04c0,2.1,0,4.2,0,6.3,0,.69-.21.9-.91.91-1.33,0-2.66,0-4,0-.44,0-.79-.25-.9-.67-.83-3.06-1.96-6.02-3.12-8.97-.32-.82-.65-1.63-1.08-2.4-.24-.43-.13-.76.49-1,1.49-.58,3.05-.91,4.62-1.13,1.33-.18,2.67-.28,4.02-.28.64,0,.88.23.88.88,0,2.12,0,4.25,0,6.37Z"/><path class="cls-2" d="m42.44,40.51c-.1.01-.14-.03-.17-.07-1.39-1.65-3.08-2.98-4.74-4.35-1.15-.95-2.27-1.94-3.4-2.91-.36-.31-.78-.4-1.23-.26-.38.13-.75.31-1.12.47-.23.1-.46.17-.72.18-.29,0-.51.16-.67.4-.17.25-.36.49-.59.7-.59.54-1.26.65-2.01.38-.34-.12-.43-.33-.37-.65.06-.35.18-.68.35-.98.86-1.58,2.13-2.77,3.66-3.67.91-.54,1.89-.45,2.85-.11,1.18.43,2.34.9,3.5,1.35.21.08.42.19.64.22.47.08.69.36.87.78,1.17,2.75,2.13,5.58,3.13,8.4.01.03,0,.06,0,.11Z"/></svg>