<?xml version="1.0" encoding="UTF-8"?><svg id="Layer_1" xmlns="http://www.w3.org/2000/svg" xmlns:xlink="http://www.w3.org/1999/xlink" viewBox="0 0 65 65"><defs><style>.cls-1{fill:url(#linear-gradient);opacity:.5;}.cls-1,.cls-2,.cls-3{stroke-width:0px;}.cls-2{fill:#376f70;}.cls-3{fill:#fff;}</style><linearGradient id="linear-gradient" x1="0" y1="32.5" x2="65" y2="32.5" gradientTransform="translate(32.5 -13.46) rotate(45)" gradientUnits="userSpaceOnUse"><stop offset="0" stop-color="#eee5dc"/><stop offset="1" stop-color="#4ead4f"/></linearGradient></defs><circle class="cls-3" cx="32.5" cy="32.5" r="32.5" transform="translate(-13.46 32.5) rotate(-45)"/><circle class="cls-1" cx="32.5" cy="32.5" r="32.5" transform="translate(-13.46 32.5) rotate(-45)"/><g id="zuyGGP.tif"><path class="cls-2" d="m32.5,44.9c-4.46,0-8.91,0-13.37,0-.72,0-.86-.13-.86-.85,0-.77,0-1.53,0-2.3,0-.5.19-.68.68-.69.32,0,.64-.01.97,0,.22.01.29-.06.29-.28-.01-.43,0-.87,0-1.3,0-1.08.04-1.12,1.13-1.12,2.04,0,4.09,0,6.13,0,5.48,0,10.95,0,16.43,0,.74,0,.87.14.87.88,0,.5.01,1,0,1.5,0,.24.05.34.31.33.34-.02.69-.01,1.03,0,.37.01.58.21.59.58.01.89,0,1.78,0,2.67,0,.37-.21.57-.58.59-.11,0-.22,0-.33,0-4.43,0-8.87,0-13.3,0Z"/><path class="cls-2" d="m32.5,27.41c-3.99,0-7.98,0-11.97,0-.69,0-.84-.15-.84-.84,0-.6,0-1.2,0-1.8,0-.31.11-.52.37-.69,4.02-2.5,8.03-5,12.05-7.5.3-.19.55-.15.83.03,3.82,2.39,7.65,4.77,11.48,7.15,1.01.63.88.45.89,1.6,0,.41,0,.82,0,1.23,0,.64-.17.81-.8.81-3.67,0-7.33,0-11,0-.33,0-.67,0-1,0Zm-2.35-4.5c-.01,1.31,1.01,2.36,2.31,2.39,1.31.03,2.38-1.03,2.39-2.34,0-1.29-1.01-2.34-2.3-2.36-1.33-.02-2.39,1-2.41,2.32Z"/><path class="cls-2" d="m30.39,32.88c0-1.33,0-2.67,0-4,0-.25.06-.34.33-.34,1.2.02,2.4.01,3.6,0,.23,0,.3.07.3.3,0,2.7,0,5.4,0,8.1,0,.21-.05.29-.28.29-1.22-.01-2.44-.01-3.67,0-.26,0-.28-.11-.28-.32,0-1.34,0-2.69,0-4.03Z"/><path class="cls-2" d="m22.29,32.91c0-1.36,0-2.71,0-4.07,0-.23.06-.3.3-.3,1.21.01,2.42.01,3.63,0,.24,0,.29.08.29.31,0,2.69,0,5.38,0,8.07,0,.25-.06.32-.31.32-1.2-.01-2.4-.01-3.6,0-.26,0-.31-.08-.31-.32.01-1.33,0-2.67,0-4Z"/><path class="cls-2" d="m42.7,32.89c0,1.34,0,2.69,0,4.03,0,.25-.07.32-.32.31-1.2-.01-2.4-.01-3.6,0-.22,0-.3-.05-.3-.29,0-2.7,0-5.4,0-8.1,0-.24.07-.3.3-.3,1.19.01,2.38.01,3.57,0,.27,0,.36.06.35.34-.02,1.33,0,2.67,0,4Z"/></g></svg>