<svg width="18" height="18" viewBox="0 0 18 18" fill="none" xmlns="http://www.w3.org/2000/svg">
<path fill-rule="evenodd" clip-rule="evenodd" d="M17.2636 15.8493C17.6541 16.2398 17.6541 16.8729 17.2636 17.2635C16.8731 17.654 16.2399 17.654 15.8494 17.2635L8.9707 10.3848L2.09202 17.2635C1.7015 17.654 1.06833 17.654 0.67781 17.2635C0.287286 16.8729 0.287286 16.2398 0.67781 15.8493L7.55649 8.97057L0.293034 1.70712C-0.0974904 1.31659 -0.0974904 0.683427 0.293034 0.292903C0.683558 -0.0976216 1.31672 -0.0976213 1.70725 0.292903L8.9707 7.55636L16.2342 0.292903C16.6247 -0.0976213 17.2578 -0.0976216 17.6484 0.292903C18.0389 0.683427 18.0389 1.31659 17.6484 1.70712L10.3849 8.97057L17.2636 15.8493Z" fill="#F0E5DB"/>
</svg>
