<svg width="20" height="20" viewBox="0 0 20 20" fill="none" xmlns="http://www.w3.org/2000/svg">
<path d="M10 0C7.28154 0 6.94274 0.0131266 5.87886 0.0581323C4.8106 0.110639 4.08801 0.276285 3.45043 0.523816C2.79285 0.781348 2.23278 1.12327 1.67958 1.67959C1.12264 2.23278 0.777597 2.79285 0.523815 3.45043C0.276285 4.08801 0.110639 4.8106 0.0581323 5.87886C0.0100013 6.94337 0 7.28154 0 10C0 12.7185 0.0131266 13.0573 0.0581323 14.1211C0.110639 15.1863 0.276285 15.912 0.523815 16.5496C0.781348 17.2072 1.12327 17.7672 1.67958 18.3204C2.23278 18.8774 2.79285 19.2224 3.45043 19.4762C4.08801 19.7206 4.81373 19.8894 5.87886 19.9419C6.94337 19.99 7.28154 20 10 20C12.7185 20 13.0573 19.9869 14.1211 19.9419C15.1863 19.8894 15.912 19.72 16.5496 19.4762C17.2072 19.2187 17.7672 18.8767 18.3204 18.3204C18.8774 17.7672 19.2224 17.2103 19.4762 16.5496C19.7206 15.912 19.8894 15.1863 19.9419 14.1211C19.99 13.0566 20 12.7185 20 10C20 7.28154 19.9869 6.94274 19.9419 5.87886C19.8894 4.81373 19.72 4.08426 19.4762 3.45043C19.2187 2.79285 18.8767 2.23278 18.3204 1.67959C17.7672 1.12264 17.2103 0.777597 16.5496 0.523816C15.912 0.276285 15.1863 0.110639 14.1211 0.0581323C13.0566 0.0100013 12.7185 0 10 0ZM10 1.80023C12.6697 1.80023 12.9885 1.81335 14.0436 1.85836C15.0169 1.90399 15.5469 2.06651 15.8989 2.20403C16.3683 2.38592 16.6965 2.60095 17.0515 2.95224C17.3997 3.30041 17.6147 3.63233 17.7966 4.10176C17.9341 4.45368 18.0966 4.98375 18.1423 5.957C18.1873 7.01213 18.2004 7.33154 18.2004 10.0006C18.2004 12.6697 18.1873 12.9891 18.1385 14.0443C18.086 15.0175 17.9235 15.5476 17.7866 15.8995C17.5972 16.3689 17.3859 16.6971 17.0371 17.0521C16.6852 17.4003 16.3502 17.6153 15.8845 17.7972C15.5369 17.9347 14.9994 18.0973 14.0224 18.1429C12.9616 18.1879 12.6491 18.201 9.9725 18.201C7.29591 18.201 6.984 18.1879 5.92199 18.1391C4.94874 18.0866 4.4118 17.9241 4.05988 17.7872C3.58482 17.5978 3.25916 17.3866 2.91036 17.0378C2.55844 16.6858 2.33467 16.3508 2.16215 15.8851C2.02213 15.5376 1.86211 15 1.81023 14.023C1.7746 12.9747 1.75772 12.6497 1.75772 9.98562C1.75772 7.32279 1.7746 6.99713 1.81023 5.93574C1.86211 4.95875 2.02213 4.42243 2.16215 4.07363C2.33467 3.59795 2.55907 3.27291 2.91036 2.92099C3.25853 2.57282 3.58482 2.34779 4.05988 2.17152C4.4118 2.03463 4.93562 1.87211 5.91261 1.82335C6.97337 1.78522 7.28591 1.77147 9.95875 1.77147L10 1.80023ZM10 4.86748C7.16152 4.86748 4.86623 7.1659 4.86623 10.0013C4.86623 12.8397 7.16465 15.135 10 15.135C12.8385 15.135 15.1338 12.8366 15.1338 10.0013C15.1338 7.16277 12.8354 4.86748 10 4.86748ZM10 13.3348C8.15727 13.3348 6.66646 11.844 6.66646 10.0013C6.66646 8.15852 8.15727 6.66771 10 6.66771C11.8427 6.66771 13.3335 8.15852 13.3335 10.0013C13.3335 11.844 11.8427 13.3348 10 13.3348ZM16.5408 4.66246C16.5408 5.32692 16.0001 5.86323 15.3388 5.86323C14.6743 5.86323 14.138 5.32629 14.138 4.66246C14.138 4.00175 14.6781 3.46418 15.3388 3.46418C15.9995 3.46418 16.5408 4.00175 16.5408 4.66246Z" fill="#00AC42"/>
</svg>
