<svg width="20" height="20" viewBox="0 0 20 20" fill="none" xmlns="http://www.w3.org/2000/svg">
<path d="M12.6247 7.00003C11.986 6.99784 11.3531 7.12161 10.7623 7.36426C10.1715 7.60691 9.63433 7.96368 9.18153 8.41415C8.72874 8.86463 8.36921 9.39996 8.12353 9.98953C7.87784 10.5791 7.75082 11.2113 7.74973 11.85V16.75C7.74973 16.9489 7.82874 17.1397 7.9694 17.2804C8.11005 17.421 8.30081 17.5 8.49973 17.5H10.2497C10.4486 17.5 10.6394 17.421 10.7801 17.2804C10.9207 17.1397 10.9997 16.9489 10.9997 16.75V11.85C10.9996 11.6229 11.0473 11.3982 11.1398 11.1907C11.2322 10.9832 11.3674 10.7976 11.5364 10.6458C11.7055 10.4941 11.9046 10.3796 12.1209 10.31C12.3371 10.2404 12.5656 10.2171 12.7914 10.2417C13.1964 10.2927 13.5686 10.4906 13.8374 10.7978C14.1062 11.105 14.2529 11.5002 14.2497 11.9084V16.75C14.2497 16.9489 14.3287 17.1397 14.4694 17.2804C14.61 17.421 14.8008 17.5 14.9997 17.5H16.7497C16.9486 17.5 17.1394 17.421 17.2801 17.2804C17.4207 17.1397 17.4997 16.9489 17.4997 16.75V11.85C17.4986 11.2113 17.3716 10.5791 17.1259 9.98953C16.8802 9.39996 16.5207 8.86463 16.0679 8.41415C15.6151 7.96368 15.0779 7.60691 14.4871 7.36426C13.8963 7.12161 13.2634 6.99784 12.6247 7.00003Z" fill="#00AC42"/>
<path d="M5.5 7.75H3.25C2.83579 7.75 2.5 8.08579 2.5 8.5V16.75C2.5 17.1642 2.83579 17.5 3.25 17.5H5.5C5.91421 17.5 6.25 17.1642 6.25 16.75V8.5C6.25 8.08579 5.91421 7.75 5.5 7.75Z" fill="#00AC42"/>
<path d="M4.375 6.25C5.41053 6.25 6.25 5.41053 6.25 4.375C6.25 3.33947 5.41053 2.5 4.375 2.5C3.33947 2.5 2.5 3.33947 2.5 4.375C2.5 5.41053 3.33947 6.25 4.375 6.25Z" fill="#00AC42"/>
</svg>
