<svg width="40" height="40" viewBox="0 0 40 40" fill="none" xmlns="http://www.w3.org/2000/svg">
<rect width="40" height="40" fill="white"/>
<path fill-rule="evenodd" clip-rule="evenodd" d="M8 12.125C8 11.5037 8.50368 11 9.125 11H30.875C31.4963 11 32 11.5037 32 12.125C32 12.7463 31.4963 13.25 30.875 13.25H9.125C8.50368 13.25 8 12.7463 8 12.125ZM8 20C8 19.3787 8.50368 18.875 9.125 18.875H30.875C31.4963 18.875 32 19.3787 32 20C32 20.6213 31.4963 21.125 30.875 21.125H9.125C8.50368 21.125 8 20.6213 8 20ZM32 27.875C32 27.2537 31.4963 26.75 30.875 26.75H9.125C8.50368 26.75 8 27.2537 8 27.875C8 28.4963 8.50368 29 9.125 29H30.875C31.4963 29 32 28.4963 32 27.875Z" fill="black"/>
</svg>
